<svg width="9" height="9" viewBox="0 0 9 9" fill="none" xmlns="http://www.w3.org/2000/svg">
<path d="M4.42105 0C4.54137 1.58728e-05 4.6575 0.0441917 4.74741 0.124149C4.83732 0.204105 4.89476 0.314282 4.90884 0.433781L4.91228 0.491258V8.35139C4.91214 8.4766 4.8642 8.59704 4.77825 8.68808C4.6923 8.77913 4.57483 8.83392 4.44984 8.84126C4.32485 8.8486 4.20178 8.80793 4.10577 8.72756C4.00975 8.6472 3.94805 8.5332 3.93326 8.40887L3.92982 8.35139V0.491258C3.92982 0.360969 3.98158 0.236015 4.0737 0.143886C4.16582 0.0517574 4.29077 0 4.42105 0ZM2.45614 1.47377C2.58642 1.47377 2.71137 1.52553 2.80349 1.61766C2.89561 1.70979 2.94737 1.83474 2.94737 1.96503V6.87762C2.94737 7.00791 2.89561 7.13286 2.80349 7.22499C2.71137 7.31712 2.58642 7.36887 2.45614 7.36887C2.32586 7.36887 2.20091 7.31712 2.10879 7.22499C2.01667 7.13286 1.96491 7.00791 1.96491 6.87762V1.96503C1.96491 1.83474 2.01667 1.70979 2.10879 1.61766C2.20091 1.52553 2.32586 1.47377 2.45614 1.47377ZM6.38596 1.47377C6.51625 1.47377 6.64119 1.52553 6.73332 1.61766C6.82544 1.70979 6.87719 1.83474 6.87719 1.96503V6.87762C6.87719 7.00791 6.82544 7.13286 6.73332 7.22499C6.64119 7.31712 6.51625 7.36887 6.38596 7.36887C6.25568 7.36887 6.13074 7.31712 6.03861 7.22499C5.94649 7.13286 5.89474 7.00791 5.89474 6.87762V1.96503C5.89474 1.83474 5.94649 1.70979 6.03861 1.61766C6.13074 1.52553 6.25568 1.47377 6.38596 1.47377ZM0.491228 2.94755C0.62151 2.94755 0.746455 2.99931 0.838579 3.09144C0.930702 3.18356 0.982456 3.30852 0.982456 3.43881V5.40384C0.982456 5.53413 0.930702 5.65908 0.838579 5.75121C0.746455 5.84334 0.62151 5.8951 0.491228 5.8951C0.360946 5.8951 0.236 5.84334 0.143877 5.75121C0.0517542 5.65908 0 5.53413 0 5.40384V3.43881C0 3.30852 0.0517542 3.18356 0.143877 3.09144C0.236 2.99931 0.360946 2.94755 0.491228 2.94755ZM8.35088 2.94755C8.4712 2.94757 8.58732 2.99174 8.67723 3.0717C8.76715 3.15165 8.82459 3.26183 8.83867 3.38133L8.8421 3.43881V5.40384C8.84197 5.52905 8.79402 5.64949 8.70807 5.74053C8.62212 5.83158 8.50465 5.88637 8.37967 5.89371C8.25468 5.90105 8.1316 5.86038 8.03559 5.78001C7.93958 5.69965 7.87787 5.58565 7.86309 5.46132L7.85965 5.40384V3.43881C7.85965 3.30852 7.9114 3.18356 8.00353 3.09144C8.09565 2.99931 8.2206 2.94755 8.35088 2.94755Z" fill="white"/>
</svg>
