<svg width="16" height="16" viewBox="0 0 16 16" fill="none" xmlns="http://www.w3.org/2000/svg">
<path d="M3.55529 12.5274C3.16381 12.5274 2.79801 12.3927 2.53489 12.1424C2.20117 11.8279 2.04073 11.353 2.09849 10.8396L2.33594 8.76029C2.38086 8.36881 2.61831 7.84899 2.89427 7.56661L8.16314 1.9897C9.47876 0.597072 10.8521 0.558566 12.2448 1.87418C13.6374 3.18979 13.6759 4.56316 12.3603 5.95579L7.0914 11.5327C6.82186 11.8215 6.32128 12.091 5.92981 12.1552L3.86333 12.5082C3.75423 12.5146 3.65797 12.5274 3.55529 12.5274ZM10.2232 1.86776C9.72904 1.86776 9.29906 2.17581 8.86266 2.63788L3.59379 8.22121C3.46544 8.35598 3.31784 8.67686 3.29217 8.86297L3.05471 10.9423C3.02904 11.1541 3.08038 11.3273 3.1959 11.4364C3.31142 11.5455 3.48469 11.584 3.69648 11.552L5.76295 11.199C5.94906 11.1669 6.25711 11 6.38546 10.8653L11.6543 5.28835C12.4501 4.44123 12.7389 3.65828 11.5773 2.56728C11.0639 2.07313 10.6211 1.86776 10.2232 1.86776Z" fill="#404040"/>
<path d="M11.128 7.02724C11.1152 7.02724 11.0959 7.02724 11.0831 7.02724C9.0808 6.82829 7.46998 5.30731 7.16193 3.31785C7.12343 3.05473 7.30312 2.81086 7.56624 2.76594C7.82936 2.72743 8.07323 2.90712 8.11816 3.17025C8.36203 4.72331 9.61988 5.91699 11.1858 6.07101C11.4489 6.09668 11.6414 6.33413 11.6158 6.59726C11.5837 6.84113 11.3719 7.02724 11.128 7.02724Z" fill="#191D31"/>
<path d="M13.4769 14.6003H1.92517C1.66205 14.6003 1.44385 14.3821 1.44385 14.119C1.44385 13.8559 1.66205 13.6377 1.92517 13.6377H13.4769C13.74 13.6377 13.9582 13.8559 13.9582 14.119C13.9582 14.3821 13.74 14.6003 13.4769 14.6003Z" fill="#191D31"/>
</svg>
