<svg width="123" height="156" viewBox="0 0 123 156" fill="none" xmlns="http://www.w3.org/2000/svg">
<g filter="url(#filter0_ddd_12118_1217)">
<path d="M60.9524 57.0475C60.9524 47.8428 68.4143 40.3809 77.6191 40.3809H78.2857C87.4905 40.3809 94.9524 47.8428 94.9524 57.0475C94.9524 66.2523 87.4905 73.7142 78.2857 73.7142H77.6191C68.4143 73.7142 60.9524 66.2523 60.9524 57.0475Z" fill="#FBF7EB"/>
<path d="M84.5997 51.0474H75.2205C74.7515 51.0474 74.3678 51.4974 74.3678 52.0474C74.3678 52.5974 74.7515 53.0474 75.2205 53.0474H84.5997C85.0687 53.0474 85.4524 52.5974 85.4524 52.0474C85.4524 51.4974 85.0687 51.0474 84.5997 51.0474ZM84.5997 56.0474H77.7785C77.3095 56.0474 76.9258 56.4974 76.9258 57.0474C76.9258 57.5974 77.3095 58.0474 77.7785 58.0474H84.5997C85.0687 58.0474 85.4524 57.5974 85.4524 57.0474C85.4524 56.4974 85.0687 56.0474 84.5997 56.0474ZM85.4524 62.0474C85.4524 61.4974 85.0687 61.0474 84.5997 61.0474H75.2205C74.7515 61.0474 74.3678 61.4974 74.3678 62.0474C74.3678 62.5974 74.7515 63.0474 75.2205 63.0474H84.5997C85.0687 63.0474 85.4524 62.5974 85.4524 62.0474ZM70.7014 54.1674L73.157 57.0474L70.7014 59.9274C70.6224 60.0199 70.5598 60.1299 70.5171 60.2508C70.4744 60.3718 70.4524 60.5014 70.4524 60.6324C70.4524 60.7633 70.4744 60.8929 70.5171 61.0139C70.5598 61.1349 70.6224 61.2448 70.7014 61.3374C70.7803 61.4299 70.874 61.5034 70.9772 61.5535C71.0803 61.6036 71.1909 61.6294 71.3025 61.6294C71.4142 61.6294 71.5247 61.6036 71.6278 61.5535C71.731 61.5034 71.8247 61.4299 71.9036 61.3374L74.9647 57.7474C75.0437 57.6548 75.1064 57.545 75.1492 57.424C75.192 57.303 75.214 57.1733 75.214 57.0424C75.214 56.9114 75.192 56.7817 75.1492 56.6607C75.1064 56.5398 75.0437 56.4299 74.9647 56.3374L71.9036 52.7474C71.5711 52.3574 71.0339 52.3574 70.7014 52.7474C70.3774 53.1374 70.3688 53.7774 70.7014 54.1674Z" fill="black"/>
</g>
<defs>
<filter id="filter0_ddd_12118_1217" x="1.14441e-05" y="-9.34601e-05" width="155.905" height="155.238" filterUnits="userSpaceOnUse" color-interpolation-filters="sRGB">
<feFlood flood-opacity="0" result="BackgroundImageFix"/>
<feColorMatrix in="SourceAlpha" type="matrix" values="0 0 0 0 0 0 0 0 0 0 0 0 0 0 0 0 0 0 127 0" result="hardAlpha"/>
<feOffset dy="0.9"/>
<feGaussianBlur stdDeviation="1.7619"/>
<feColorMatrix type="matrix" values="0 0 0 0 0.859901 0 0 0 0 0.859901 0 0 0 0 0.859901 0 0 0 0.08125 0"/>
<feBlend mode="normal" in2="BackgroundImageFix" result="effect1_dropShadow_12118_1217"/>
<feColorMatrix in="SourceAlpha" type="matrix" values="0 0 0 0 0 0 0 0 0 0 0 0 0 0 0 0 0 0 127 0" result="hardAlpha"/>
<feOffset dy="10.4143"/>
<feGaussianBlur stdDeviation="13.2857"/>
<feColorMatrix type="matrix" values="0 0 0 0 0.921255 0 0 0 0 0.883958 0 0 0 0 0.772067 0 0 0 1 0"/>
<feBlend mode="normal" in2="effect1_dropShadow_12118_1217" result="effect2_dropShadow_12118_1217"/>
<feColorMatrix in="SourceAlpha" type="matrix" values="0 0 0 0 0 0 0 0 0 0 0 0 0 0 0 0 0 0 127 0" result="hardAlpha"/>
<feOffset dy="20.5714"/>
<feGaussianBlur stdDeviation="30.4762"/>
<feColorMatrix type="matrix" values="0 0 0 0 0.984314 0 0 0 0 0.968627 0 0 0 0 0.921569 0 0 0 1 0"/>
<feBlend mode="normal" in2="effect2_dropShadow_12118_1217" result="effect3_dropShadow_12118_1217"/>
<feBlend mode="normal" in="SourceGraphic" in2="effect3_dropShadow_12118_1217" result="shape"/>
</filter>
</defs>
</svg>
