<svg width="22" height="16" viewBox="0 0 22 16" fill="none" xmlns="http://www.w3.org/2000/svg">
<g style="mix-blend-mode:multiply">
<path d="M16.7289 13.1303C16.7289 13.2593 16.6776 13.383 16.5864 13.4742C16.4952 13.5654 16.3715 13.6166 16.2426 13.6166H5.54392C5.41494 13.6166 5.29125 13.5654 5.20005 13.4742C5.10885 13.383 5.05762 13.2593 5.05762 13.1303C5.05762 13.0013 5.10885 12.8777 5.20005 12.7865C5.29125 12.6953 5.41494 12.644 5.54392 12.644H16.2426C16.3715 12.644 16.4952 12.6953 16.5864 12.7865C16.6776 12.8777 16.7289 13.0013 16.7289 13.1303ZM7.97543 10.6988C8.03931 10.6989 8.10258 10.6863 8.16161 10.6619C8.22065 10.6375 8.2743 10.6017 8.31949 10.5566L14.2974 4.57808V9.2399C14.2974 9.36888 14.3486 9.49257 14.4398 9.58377C14.531 9.67497 14.6547 9.7262 14.7837 9.7262C14.9126 9.7262 15.0363 9.67497 15.1275 9.58377C15.2187 9.49257 15.27 9.36888 15.27 9.2399V3.40427C15.27 3.2753 15.2187 3.1516 15.1275 3.0604C15.0363 2.9692 14.9126 2.91797 14.7837 2.91797H8.94804C8.81906 2.91797 8.69537 2.9692 8.60417 3.0604C8.51297 3.1516 8.46173 3.2753 8.46173 3.40427C8.46173 3.53325 8.51297 3.65694 8.60417 3.74814C8.69537 3.83934 8.81906 3.89057 8.94804 3.89057H13.6099L7.63137 9.86845C7.56328 9.93646 7.51691 10.0231 7.49811 10.1175C7.47932 10.2119 7.48895 10.3097 7.52579 10.3987C7.56262 10.4876 7.62501 10.5635 7.70506 10.617C7.7851 10.6704 7.87919 10.6989 7.97543 10.6988Z" fill="#333333" fill-opacity="0.8"/>
</g>
</svg>
