<svg width="93" height="93" viewBox="0 0 93 93" fill="none" xmlns="http://www.w3.org/2000/svg">
<g filter="url(#filter0_d_12217_4394)">
<circle cx="46.1856" cy="35.2506" r="18.2857" fill="white"/>
</g>
<path d="M46.4497 45.7668C47.7027 45.7668 48.8762 45.5289 49.9701 45.0531C51.064 44.5773 52.0163 43.9341 52.8269 43.1235C53.6375 42.3129 54.2807 41.3607 54.7565 40.2667C55.2323 39.1728 55.4705 37.999 55.4712 36.7453C55.4719 35.4917 55.2336 34.3182 54.7565 33.2249C54.2794 32.1317 53.6365 31.1794 52.8279 30.3681C52.0193 29.5569 51.067 28.9137 49.9711 28.4386C48.8752 27.9634 47.7014 27.7252 46.4497 27.7239H46.2994L47.1514 26.8718C47.3352 26.6881 47.427 26.4585 47.427 26.1832C47.427 25.9079 47.3352 25.6696 47.1514 25.4685C46.9509 25.268 46.7127 25.1638 46.4367 25.1557C46.1607 25.1477 45.9228 25.2436 45.723 25.4434L43.1418 28.0246C42.9581 28.2083 42.8662 28.4422 42.8662 28.7262C42.8662 29.0102 42.9581 29.2441 43.1418 29.4279L45.723 32.0091C45.9235 32.2095 46.1614 32.3058 46.4367 32.2977C46.712 32.2897 46.9502 32.1851 47.1514 31.984C47.3352 31.7835 47.427 31.5456 47.427 31.2703C47.427 30.995 47.3352 30.7651 47.1514 30.5807L46.2994 29.7286H46.4497C48.4044 29.7286 50.0623 30.4096 51.4236 31.7715C52.7848 33.1334 53.4657 34.7913 53.4664 36.7453C53.4671 38.6993 52.7861 40.3576 51.4236 41.7202C50.061 43.0828 48.403 43.7634 46.4497 43.762C44.6788 43.762 43.1335 43.1857 41.8137 42.0329C40.4939 40.8802 39.717 39.4267 39.4831 37.6725C39.4497 37.4052 39.3328 37.1837 39.1323 37.008C38.9318 36.8322 38.6979 36.7447 38.4306 36.7453C38.1633 36.746 37.9294 36.8295 37.7289 36.9959C37.5285 37.1623 37.4449 37.3712 37.4784 37.6224C37.7122 39.9446 38.6812 41.8826 40.3853 43.4363C42.0893 44.99 44.1108 45.7668 46.4497 45.7668Z" fill="#404040"/>
<defs>
<filter id="filter0_d_12217_4394" x="-9.91821e-05" y="-0.000157356" width="92.3713" height="92.3713" filterUnits="userSpaceOnUse" color-interpolation-filters="sRGB">
<feFlood flood-opacity="0" result="BackgroundImageFix"/>
<feColorMatrix in="SourceAlpha" type="matrix" values="0 0 0 0 0 0 0 0 0 0 0 0 0 0 0 0 0 0 127 0" result="hardAlpha"/>
<feOffset dy="10.935"/>
<feGaussianBlur stdDeviation="13.95"/>
<feColorMatrix type="matrix" values="0 0 0 0 0.542837 0 0 0 0 0.49865 0 0 0 0 0.486543 0 0 0 0.16875 0"/>
<feBlend mode="normal" in2="BackgroundImageFix" result="effect1_dropShadow_12217_4394"/>
<feBlend mode="normal" in="SourceGraphic" in2="effect1_dropShadow_12217_4394" result="shape"/>
</filter>
</defs>
</svg>
