<svg width="18" height="18" viewBox="0 0 18 18" fill="none" xmlns="http://www.w3.org/2000/svg">
<path d="M2.52614 15.0655C2.05333 15.0655 1.64872 14.8973 1.3123 14.5609C0.975889 14.2245 0.807396 13.8196 0.806823 13.3462V3.0303C0.806823 2.55748 0.975316 2.15287 1.3123 1.81646C1.64929 1.48005 2.0539 1.31155 2.52614 1.31098L4.24546 3.0303H2.52614V13.3462H12.1113L10.392 11.6269H5.10512C4.86155 11.6269 4.65752 11.5444 4.49304 11.3793C4.32856 11.2142 4.24603 11.0102 4.24546 10.7672C4.24488 10.5242 4.32741 10.3202 4.49304 10.1551C4.65867 9.99009 4.86269 9.90757 5.10512 9.90757H8.6727L0.248044 1.43993C0.0904403 1.28232 0.00791306 1.08546 0.000462683 0.849343C-0.00698769 0.613223 0.0755396 0.408911 0.248044 0.236406C0.405649 0.0788021 0.606236 0 0.849806 0C1.09338 0 1.29396 0.0788021 1.45157 0.236406L17.3553 16.1401C17.5129 16.2977 17.5954 16.4948 17.6028 16.7315C17.6103 16.9682 17.5278 17.1723 17.3553 17.3436C17.1977 17.5012 16.9971 17.58 16.7535 17.58C16.5099 17.58 16.3093 17.5012 16.1517 17.3436L13.8307 15.0655H2.52614ZM18 3.0303V12.2716C18 12.5582 17.9106 12.7731 17.7318 12.9164C17.553 13.0596 17.3558 13.1313 17.1403 13.1313C16.8968 13.1313 16.6927 13.0453 16.5283 12.8734C16.3638 12.7015 16.2813 12.4937 16.2807 12.2501V3.0303H7.06084C6.77429 3.0303 6.55937 2.94089 6.4161 2.76208C6.27282 2.58327 6.20118 2.38613 6.20118 2.17064C6.20118 1.92707 6.28371 1.72304 6.44876 1.55856C6.61382 1.39408 6.81784 1.31155 7.06084 1.31098H16.2807C16.7535 1.31098 17.1584 1.47947 17.4954 1.81646C17.8324 2.15345 18.0006 2.55806 18 3.0303ZM13.7017 8.18825H12.2188C11.9322 8.18825 11.7173 8.09884 11.574 7.92004C11.4308 7.74123 11.3591 7.54408 11.3591 7.32859C11.3591 7.1131 11.4308 6.91624 11.574 6.73801C11.7173 6.55977 11.9322 6.47008 12.2188 6.46893H13.7017C13.9453 6.46893 14.1496 6.55146 14.3146 6.71651C14.4797 6.88157 14.5619 7.08559 14.5614 7.32859C14.5608 7.57159 14.4783 7.7759 14.3138 7.94153C14.1493 8.10716 13.9453 8.1894 13.7017 8.18825ZM5.10512 8.18825C4.86155 8.18825 4.65752 8.10572 4.49304 7.94067C4.32856 7.77561 4.24603 7.57159 4.24546 7.32859C4.24488 7.08559 4.32741 6.88157 4.49304 6.71651C4.65867 6.55146 4.86269 6.46893 5.10512 6.46893C5.34754 6.46893 5.55185 6.55146 5.71805 6.71651C5.88425 6.88157 5.9665 7.08559 5.96478 7.32859C5.96306 7.57159 5.88053 7.7759 5.71719 7.94153C5.55386 8.10716 5.34983 8.1894 5.10512 8.18825Z" fill="#404040"/>
</svg>
