<svg width="16" height="16" viewBox="0 0 16 16" fill="none" xmlns="http://www.w3.org/2000/svg">
<path d="M13.477 3.83797C11.3399 3.62619 9.19004 3.51709 7.04656 3.51709C5.77587 3.51709 4.50518 3.58127 3.23449 3.70962L1.92529 3.83797" stroke="#B3261E" stroke-width="1.15517" stroke-linecap="round" stroke-linejoin="round"/>
<path d="M5.45508 3.18973L5.59627 2.34902C5.69895 1.73934 5.77596 1.28369 6.86054 1.28369H8.54196C9.62653 1.28369 9.70996 1.76501 9.80623 2.35543L9.94742 3.18973" stroke="#B3261E" stroke-width="1.15517" stroke-linecap="round" stroke-linejoin="round"/>
<path d="M12.0973 5.86572L11.6802 12.3283C11.6096 13.3358 11.5518 14.1188 9.76131 14.1188H5.64119C3.85067 14.1188 3.79292 13.3358 3.72232 12.3283L3.30518 5.86572" stroke="#B3261E" stroke-width="1.15517" stroke-linecap="round" stroke-linejoin="round"/>
<path d="M6.62939 10.5889H8.76646" stroke="#B3261E" stroke-width="1.15517" stroke-linecap="round" stroke-linejoin="round"/>
<path d="M6.09668 8.02197H9.30549" stroke="#B3261E" stroke-width="1.15517" stroke-linecap="round" stroke-linejoin="round"/>
</svg>
