<svg width="15" height="15" viewBox="0 0 15 15" fill="none" xmlns="http://www.w3.org/2000/svg">
<g clip-path="url(#clip0_12155_4433)">
<path d="M7.5 15C11.6421 15 15 11.6421 15 7.5C15 3.35786 11.6421 0 7.5 0C3.35786 0 0 3.35786 0 7.5C0 11.6421 3.35786 15 7.5 15Z" fill="#F0F0F0"/>
<path d="M1.55081 2.93408C0.96168 3.70058 0.517451 4.58402 0.258789 5.54376H4.16049L1.55081 2.93408Z" fill="#0052B4"/>
<path d="M14.7415 5.54373C14.4828 4.58402 14.0386 3.70058 13.4495 2.93408L10.8398 5.54373H14.7415Z" fill="#0052B4"/>
<path d="M0.258789 9.45703C0.51748 10.4167 0.961709 11.3002 1.55081 12.0667L4.1604 9.45703H0.258789Z" fill="#0052B4"/>
<path d="M12.0667 1.55035C11.3002 0.961221 10.4168 0.516992 9.45703 0.258301V4.15997L12.0667 1.55035Z" fill="#0052B4"/>
<path d="M2.93457 13.4494C3.70106 14.0386 4.58451 14.4828 5.54422 14.7415V10.8398L2.93457 13.4494Z" fill="#0052B4"/>
<path d="M5.5437 0.258301C4.58399 0.516992 3.70055 0.961221 2.93408 1.55032L5.5437 4.15994V0.258301Z" fill="#0052B4"/>
<path d="M9.45703 14.7415C10.4167 14.4828 11.3002 14.0386 12.0667 13.4495L9.45703 10.8398V14.7415Z" fill="#0052B4"/>
<path d="M10.8398 9.45703L13.4495 12.0667C14.0386 11.3002 14.4828 10.4167 14.7415 9.45703H10.8398Z" fill="#0052B4"/>
<path d="M14.9365 6.52175H8.47831H8.47828V0.0634863C8.15804 0.0217969 7.83155 0 7.5 0C7.16839 0 6.84196 0.0217969 6.52175 0.0634863V6.52169V6.52172H0.0634863C0.0217969 6.84196 0 7.16845 0 7.5C0 7.83161 0.0217969 8.15804 0.0634863 8.47825H6.52169H6.52172V14.9365C6.84196 14.9782 7.16839 15 7.5 15C7.83155 15 8.15804 14.9782 8.47825 14.9365V8.47831V8.47828H14.9365C14.9782 8.15804 15 7.83161 15 7.5C15 7.16845 14.9782 6.84196 14.9365 6.52175Z" fill="#D80027"/>
<path d="M9.45605 9.45657L12.8028 12.8033C12.9567 12.6495 13.1036 12.4886 13.2437 12.3218L10.3784 9.45654H9.45605V9.45657Z" fill="#D80027"/>
<path d="M5.54308 9.45654H5.54302L2.19629 12.8033C2.35016 12.9572 2.51103 13.104 2.67778 13.2441L5.54308 10.3788V9.45654Z" fill="#D80027"/>
<path d="M5.54348 5.54362V5.54356L2.19672 2.19678C2.04279 2.35064 1.89596 2.51151 1.75586 2.67827L4.62118 5.54359H5.54348V5.54362Z" fill="#D80027"/>
<path d="M9.45605 5.54302L12.8028 2.1962C12.649 2.04228 12.4881 1.89544 12.3213 1.75537L9.45605 4.62069V5.54302Z" fill="#D80027"/>
</g>
<defs>
<clipPath id="clip0_12155_4433">
<rect width="15" height="15" fill="white"/>
</clipPath>
</defs>
</svg>
